<?xml version="1.0" encoding="UTF-8"?>
<svg id="Ebene_1" data-name="Ebene 1" xmlns="http://www.w3.org/2000/svg" viewBox="0 0 1000 1000">
  <defs>
    <style>
      .cls-1 {
        fill: #f66101;
      }

      .cls-1, .cls-2, .cls-3, .cls-4 {
        stroke-width: 0px;
      }

      .cls-2 {
        fill: #111827;
      }

      .cls-3 {
        fill: #fff;
      }

      .cls-4 {
        fill: #86abd4;
      }
    </style>
  </defs>
  <g>
    <path class="cls-3" d="m436.56,187.66c-7.21-7.27-13.36-7.19-20.7.05-15.87,15.66-31.74,31.33-47.53,47.07-32.03,31.94-64.32,63.64-95.91,96.01-28.7,29.41-28.5,77.86.07,107,47.13,48.09,94.53,95.91,141.84,143.82,7,7.09,13.32,7.2,20.25.32m40.03-124.96c-23.91-23.84-47.91-47.59-72.74-72.24,7.74-7.45,14.18-13.51,20.47-19.73"/>
    <path class="cls-4" d="m483.72,501.1c-11.37,10.77-22.54,21.24-33.58,31.85-7.01,6.74-14.06,13.48-20.62,20.65-3.71,4.06-5.99,3.86-9.75,0-29.32-30.02-58.88-59.82-88.31-89.75-14.55-14.8-29.83-29-43.26-44.77-18.81-22.1-18.04-50.58,1.65-71.94,16.26-17.64,33.82-34.07,50.83-51.02.56-.56,1.35-.89,2.29-1.49.4,9.3.49,18.23,1.23,27.11,2.45,29.32,15.62,53.49,36.1,74.09,32.94,33.12,65.83,66.28,98.72,99.46,1.32,1.33,2.38,2.92,4.71,5.81Z"/>
    <path class="cls-1" d="m483.15,270.41c-32.03,31.18-64.38,62.67-97.19,94.62-6.85-7.69-11.6-18.17-14.57-29.37-9.39-35.47-1.08-66.71,23.8-93.39,9.83-10.55,20.61-20.22,30.67-30.01,18.97,19.25,37.89,38.46,57.3,58.16Z"/>
  </g>
  <g>
    <path class="cls-3" d="m525.44,313.56c23.91,23.84,47.91,47.59,72.74,72.24-7.74,7.45-14.18,13.51-20.47,19.73m-14.22,177.34c7.21,7.27,13.36,7.19,20.7-.05,15.87-15.66,31.74-31.33,47.53-47.07,32.03-31.94,64.32-63.64,95.91-96.01,28.7-29.41,28.5-77.86-.07-107-47.13-48.09-94.53-95.91-141.84-143.82-7-7.09-13.32-7.2-20.25-.32"/>
    <path class="cls-2" d="m727.57,332.74c-47.13-48.09-94.53-95.91-141.84-143.82-7-7.09-13.32-7.2-20.25-.32-21.55,21.38-43.05,42.81-64.54,64.26-21.43-21.77-42.88-43.51-64.38-65.2-7.21-7.27-13.36-7.19-20.7.05-15.87,15.66-31.74,31.33-47.53,47.07-32.03,31.94-64.32,63.64-95.91,96.01-28.7,29.41-28.5,77.86.07,107,47.13,48.09,94.53,95.91,141.84,143.82,7,7.09,13.32,7.2,20.25.32,21.55-21.38,43.05-42.81,64.54-64.26,21.43,21.77,42.88,43.51,64.38,65.2,7.21,7.27,13.36,7.19,20.7-.05,15.87-15.66,31.74-31.33,47.53-47.07,32.03-31.94,64.32-63.64,95.91-96.01,28.7-29.41,28.5-77.86-.07-107Zm-227.58,149.92c-8.42-8.6-16.85-17.19-25.37-25.68-23.91-23.84-47.91-47.59-72.74-72.24,7.74-7.45,14.18-13.51,20.47-19.73,25.94-25.69,51.85-51.4,77.73-77.13,8.42,8.6,16.85,17.19,25.37,25.68,23.91,23.84,47.91,47.59,72.74,72.24-7.74,7.45-14.18,13.51-20.47,19.73-25.94,25.69-51.85,51.4-77.73,77.13Zm-104.8-240.4c9.83-10.55,20.61-20.22,30.67-30.01,18.97,19.25,37.89,38.46,57.3,58.16-32.03,31.18-64.38,62.67-97.19,94.62-6.85-7.69-11.6-18.17-14.57-29.37-9.39-35.47-1.08-66.71,23.8-93.39Zm54.96,290.69c-7.01,6.74-14.06,13.48-20.62,20.65-3.71,4.06-5.99,3.86-9.75,0-29.32-30.02-58.88-59.82-88.31-89.75-14.55-14.8-29.83-29-43.26-44.77-18.81-22.1-18.04-50.58,1.65-71.94,16.26-17.64,33.82-34.07,50.83-51.02.56-.56,1.35-.89,2.29-1.49.4,9.3.49,18.23,1.23,27.11,2.45,29.32,15.62,53.49,36.1,74.09,32.94,33.12,65.83,66.28,98.72,99.46,1.32,1.33,2.38,2.92,4.71,5.81-11.37,10.77-22.54,21.24-33.58,31.85Zm154.74-4.68c-9.83,10.55-20.61,20.22-30.67,30.01-18.97-19.25-37.89-38.46-57.3-58.16,32.03-31.18,64.38-62.67,97.19-94.62,6.85,7.69,11.6,18.17,14.57,29.38,9.39,35.47,1.08,66.71-23.8,93.39Zm105.34-104.88c-16.26,17.64-33.82,34.07-50.83,51.02-.56.56-1.35.89-2.29,1.49-.4-9.3-.49-18.23-1.23-27.11-2.45-29.32-15.62-53.49-36.1-74.09-32.94-33.12-65.83-66.28-98.72-99.46-1.32-1.33-2.38-2.92-4.71-5.81,11.37-10.77,22.54-21.24,33.58-31.85,7.01-6.74,14.06-13.48,20.62-20.65,3.71-4.06,5.99-3.86,9.75,0,29.32,30.02,58.88,59.82,88.31,89.75,14.55,14.8,29.83,29,43.26,44.77,18.81,22.1,18.04,50.58-1.65,71.94Z"/>
    <path class="cls-4" d="m516.34,269.44c11.37-10.77,22.54-21.24,33.58-31.85,7.01-6.74,14.06-13.48,20.62-20.65,3.71-4.06,5.99-3.86,9.75,0,29.32,30.02,58.88,59.82,88.31,89.75,14.55,14.8,29.83,29,43.26,44.77,18.81,22.1,18.04,50.58-1.65,71.94-16.26,17.64-33.82,34.07-50.83,51.02-.56.56-1.35.89-2.29,1.49-.4-9.3-.49-18.23-1.23-27.11-2.45-29.32-15.62-53.49-36.1-74.09-32.94-33.12-65.83-66.28-98.72-99.46-1.32-1.33-2.38-2.92-4.71-5.81Z"/>
    <path class="cls-1" d="m516.91,500.13c32.03-31.18,64.38-62.67,97.19-94.62,6.85,7.69,11.6,18.17,14.57,29.37,9.39,35.47,1.08,66.71-23.8,93.39-9.83,10.55-20.61,20.22-30.67,30.01-18.97-19.25-37.89-38.46-57.3-58.16Z"/>
  </g>
  <g>
    <path class="cls-2" d="m261.06,645.55h-19v-16.96h59.88v16.96h-19v47.92h-21.88v-47.92Z"/>
    <path class="cls-2" d="m361.54,676.97v16.5h-53.95v-64.89h52.74v16.5h-31.24v7.6h27.44v15.76h-27.44v8.53h32.44Z"/>
    <path class="cls-2" d="m369.97,628.58h21.88v47.92h29.29v16.96h-51.17v-64.89Z"/>
    <path class="cls-2" d="m427.16,628.58h21.88v47.92h29.29v16.96h-51.17v-64.89Z"/>
    <path class="cls-2" d="m492.42,645.55h-19v-16.96h59.88v16.96h-19v47.92h-21.88v-47.92Z"/>
    <path class="cls-2" d="m602.91,628.58v64.89h-21.88v-23.92h-20.21v23.92h-21.88v-64.89h21.88v22.99h20.21v-22.99h21.88Z"/>
    <path class="cls-2" d="m667.42,676.97v16.5h-53.95v-64.89h52.74v16.5h-31.24v7.6h27.44v15.76h-27.44v8.53h32.44Z"/>
    <path class="cls-2" d="m733.79,693.47l-.19-29.57-14.09,23.73h-9.64l-14.09-22.71v28.55h-19.93v-64.89h17.98l21.14,34.58,20.58-34.58h17.98l.19,64.89h-19.93Z"/>
  </g>
  <g>
    <path class="cls-1" d="m305.93,745.5l2.51-5.63c2.39,1.58,5.79,2.66,8.91,2.66s4.4-.89,4.4-2.2c0-4.28-15.36-1.16-15.36-11.19,0-4.82,3.94-8.76,11.96-8.76,3.51,0,7.14.81,9.8,2.35l-2.35,5.67c-2.59-1.39-5.13-2.08-7.49-2.08-3.2,0-4.36,1.08-4.36,2.43,0,4.13,15.32,1.04,15.32,11,0,4.71-3.94,8.72-11.96,8.72-4.44,0-8.84-1.2-11.38-2.97Z"/>
    <path class="cls-1" d="m331.39,734.42c0-8.1,6.37-14.05,15.01-14.05s15.01,5.94,15.01,14.05-6.37,14.05-15.01,14.05-15.01-5.94-15.01-14.05Zm22.3,0c0-4.67-3.2-7.72-7.29-7.72s-7.29,3.05-7.29,7.72,3.2,7.72,7.29,7.72,7.29-3.05,7.29-7.72Z"/>
    <path class="cls-1" d="m364.03,734.42c0-8.22,6.29-14.05,14.86-14.05,4.98,0,8.99,1.81,11.62,5.09l-4.86,4.4c-1.7-2.05-3.78-3.17-6.37-3.17-4.44,0-7.52,3.09-7.52,7.72s3.09,7.72,7.52,7.72c2.59,0,4.67-1.12,6.37-3.17l4.86,4.4c-2.62,3.28-6.64,5.09-11.62,5.09-8.57,0-14.86-5.83-14.86-14.05Z"/>
    <path class="cls-1" d="m393.9,720.92h7.64v27.01h-7.64v-27.01Z"/>
    <path class="cls-1" d="m425.07,742.68h-11.42l-2.12,5.25h-7.79l11.92-27.01h7.52l11.96,27.01h-7.95l-2.12-5.25Zm-2.24-5.63l-3.47-8.64-3.47,8.64h6.95Z"/>
    <path class="cls-1" d="m437.3,720.92h7.64v20.95h12.89v6.06h-20.53v-27.01Z"/>
    <path class="cls-4" d="m496.41,730.91c0,6.14-4.63,9.96-12,9.96h-4.71v7.06h-7.64v-27.01h12.35c7.37,0,12,3.82,12,10Zm-7.72,0c0-2.51-1.58-3.97-4.75-3.97h-4.25v7.91h4.25c3.16,0,4.75-1.47,4.75-3.94Z"/>
    <path class="cls-4" d="m500.11,720.92h7.64v20.95h12.89v6.06h-20.53v-27.01Z"/>
    <path class="cls-4" d="m542.05,742.68h-11.42l-2.12,5.25h-7.79l11.92-27.01h7.53l11.96,27.01h-7.95l-2.12-5.25Zm-2.24-5.63l-3.47-8.64-3.47,8.64h6.95Z"/>
    <path class="cls-4" d="m558.68,726.98h-8.3v-6.06h24.2v6.06h-8.26v20.95h-7.64v-20.95Z"/>
    <path class="cls-4" d="m585.07,726.82v5.94h11.92v5.9h-11.92v9.26h-7.64v-27.01h21.19v5.9h-13.54Z"/>
    <path class="cls-4" d="m600.58,734.42c0-8.1,6.37-14.05,15.01-14.05s15.01,5.94,15.01,14.05-6.37,14.05-15.01,14.05-15.01-5.94-15.01-14.05Zm22.3,0c0-4.67-3.2-7.72-7.29-7.72s-7.29,3.05-7.29,7.72,3.2,7.72,7.29,7.72,7.29-3.05,7.29-7.72Z"/>
    <path class="cls-4" d="m646.42,740.75h-4.17v7.18h-7.64v-27.01h12.35c7.37,0,12,3.82,12,10,0,3.97-1.93,6.91-5.29,8.53l5.83,8.49h-8.18l-4.9-7.18Zm.08-13.81h-4.25v7.91h4.25c3.16,0,4.75-1.47,4.75-3.94s-1.58-3.97-4.75-3.97Z"/>
    <path class="cls-4" d="m687.55,747.93l-.08-14.32-6.95,11.65h-3.4l-6.91-11.27v13.93h-7.06v-27.01h6.29l9.49,15.59,9.26-15.59h6.29l.08,27.01h-7.02Z"/>
  </g>
</svg>